<?xml version="1.0" encoding="UTF-8" standalone="no"?>
<!-- Created with Inkscape (http://www.inkscape.org/) -->

<svg
   version="1.1"
   id="svg1"
   width="429.34103"
   height="554.31781"
   viewBox="0 0 429.34103 554.31781"
   sodipodi:docname="kg1a1.svg"
   inkscape:version="1.3.2 (091e20ef0f, 2023-11-25)"
   xmlns:inkscape="http://www.inkscape.org/namespaces/inkscape"
   xmlns:sodipodi="http://sodipodi.sourceforge.net/DTD/sodipodi-0.dtd"
   xmlns="http://www.w3.org/2000/svg"
   xmlns:svg="http://www.w3.org/2000/svg">
  <defs
     id="defs1" />
  <sodipodi:namedview
     id="namedview1"
     pagecolor="#ffffff"
     bordercolor="#000000"
     borderopacity="0.25"
     inkscape:showpageshadow="2"
     inkscape:pageopacity="0.0"
     inkscape:pagecheckerboard="0"
     inkscape:deskcolor="#d1d1d1"
     showgrid="false"
     inkscape:zoom="1.3394343"
     inkscape:cx="204.56398"
     inkscape:cy="272.8764"
     inkscape:window-width="1920"
     inkscape:window-height="1011"
     inkscape:window-x="0"
     inkscape:window-y="0"
     inkscape:window-maximized="1"
     inkscape:current-layer="layer1" />
  <g
     inkscape:groupmode="layer"
     id="layer1"
     inkscape:label="Layer 1"
     transform="translate(-28.506367,-27.46668)"
     style="fill:#ff6600">
    <path
       id="path1"
       style="fill:#FFFF00"
       d="M 153.94582 27.474493 C 152.12718 27.35508 149.05954 28.490379 144.7466 30.880743 C 132.98174 37.4012 116.39461 55.985406 112.10402 67.453008 C 111.02077 70.348253 109.62836 76.409418 109.01027 80.923711 C 107.51471 91.84661 107.35556 92.167924 103.6216 91.804571 C 100.74265 91.524419 100.11072 90.711096 95.500508 81.390508 C 90.643409 71.570798 79.646876 55.802501 73.076679 49.232305 C 65.368476 41.524102 41.960057 31.128061 38.596211 33.919805 C 36.694172 35.498357 37.18168 40.052711 39.941914 46.499883 C 40.883801 48.699881 42.437718 53.649887 43.395039 57.499883 C 44.352359 61.349879 45.58606 66.230931 46.137226 68.347539 C 48.294172 76.630707 63.45178 96.246265 72.750508 102.78699 C 75.869053 104.98058 75.999395 105.34461 75.992695 111.78699 C 75.988842 115.47966 75.038582 122.32489 73.881367 126.99988 C 71.015465 138.57775 70.834836 158.64404 73.535664 165.32801 C 74.975998 168.89252 73.134266 180.05669 69.982929 186.86512 C 65.594495 196.34627 64.18417 198.82166 57.848164 208.1698 C 51.139744 218.06741 49.514528 224.35466 50.207539 237.71863 C 50.584351 244.98507 51.313571 248.05293 54.432148 255.49988 C 58.479118 265.16377 58.56164 266.4475 56.100117 281.41785 C 55.564999 284.67231 55.095558 299.52233 55.057148 314.41785 C 55.018738 329.31339 54.492967 347.57489 53.889179 354.99988 C 52.878967 367.42284 53.099756 379.2829 54.648945 395.99988 L 55.250508 402.49988 L 62.346211 409.24988 C 66.249395 412.96238 70.065617 415.99988 70.826679 415.99988 C 71.587743 415.99988 73.548056 417.12488 75.182148 418.49988 C 79.58299 422.20295 81.380984 421.84572 80.553242 417.43348 C 79.928063 414.10098 80.015966 413.93724 81.877461 414.93348 C 85.670577 416.96349 86.185467 416.32603 85.457539 410.49988 L 84.770039 404.99988 L 87.885273 404.99988 C 89.972124 404.99988 91.000508 405.4906 91.000508 406.48426 C 91.000508 407.30009 92.390863 413.03759 94.090351 419.23426 C 99.212197 437.90951 105.24208 474.23826 107.99465 502.99988 C 108.98476 513.34553 107.46748 534.94485 105.61965 536.80262 C 103.87117 538.5605 88.76352 540.85176 76.500508 541.21863 C 65.858778 541.537 65.307088 541.71972 52.361836 549.21277 C 48.985847 551.16688 43.924466 553.52921 41.113789 554.46277 C 35.895369 556.19605 30.042945 561.89065 28.586445 566.65223 C 27.908475 568.86864 31.722052 575.69986 34.510273 577.26355 C 37.91654 579.17387 46.124245 579.94675 49.78957 578.70301 C 51.831456 578.01014 54.849723 577.74062 56.500508 578.1034 C 62.100772 579.33412 79.512992 579.087 80.842304 577.7577 C 81.756575 576.84343 88.211281 576.4981 105.29152 576.4491 C 130.86975 576.37573 141.23065 575.14172 147.03371 571.4784 C 154.05757 567.04443 155.34873 560.05095 152.47316 541.99988 C 146.40366 503.89912 145.55787 457.46476 150.59426 438.74402 C 151.37012 435.86008 152.29707 429.56238 152.65285 424.74988 C 153.0793 418.98152 153.70719 415.99988 154.4966 415.99988 C 155.15519 415.99988 156.18298 414.98738 156.7798 413.74988 C 157.67573 411.89219 157.87625 411.81284 157.93215 413.29871 C 157.96937 414.28852 158.68678 416.42602 159.5259 418.04871 C 161.2244 421.33324 164.98509 422.15543 165.02199 419.24988 C 165.03422 418.28738 165.86449 416.43333 166.8677 415.12879 C 168.4232 413.10604 168.7842 412.99564 169.31496 414.37879 C 170.09843 416.42047 174.74044 416.52101 175.17629 414.50574 C 175.36773 413.62054 179.17148 417.55024 184.50051 424.14246 C 193.90813 435.7801 199.66973 439.96702 206.31496 439.99012 C 212.46544 440.01146 212.72608 440.43158 227.58059 474.36121 L 234.96145 491.22254 L 235.23098 513.86121 C 235.3789 526.31273 235.16219 537.41492 234.75051 538.53309 C 234.10927 540.27471 232.53257 540.74029 223.75051 541.78309 C 218.11219 542.45259 210.47141 543.00005 206.77004 542.99988 C 199.86166 542.99955 193.13331 544.93869 189.50051 547.97645 C 187.43828 549.70088 177.4195 554.26082 173.00051 555.48621 C 168.89038 556.62595 161.57898 561.98686 159.2134 565.59559 C 156.51299 569.71509 156.3122 572.99988 158.76223 572.99988 C 159.73181 572.99988 160.96931 573.98488 161.51223 575.18934 C 162.05515 576.39379 164.52551 578.45483 167.00051 579.76941 C 170.97009 581.87784 172.31095 582.08387 178.37746 581.5077 C 182.15986 581.14847 186.30669 580.45353 187.5923 579.96473 C 188.87793 579.4759 190.16007 579.4501 190.44191 579.90613 C 191.82286 582.14055 213.21847 581.44878 218.05129 579.01355 C 218.90421 578.58378 226.59384 578.46654 235.14113 578.75379 C 257.43397 579.50301 274.03342 576.82522 278.76613 571.71668 C 281.05643 569.24451 283.44837 561.53553 282.4341 559.89441 C 282.07395 559.31167 283.23136 559.58496 285.00441 560.50184 C 289.63235 562.89503 295.61046 565.00754 302.50051 566.68543 C 315.46825 569.84338 382.7324 569.14222 411.00051 565.55457 C 453.5173 560.15855 458.40205 558.45654 457.80324 549.23426 C 457.52173 544.89869 457.25611 544.49075 454.00051 543.38855 C 452.07551 542.73684 444.4255 541.47033 437.00051 540.5741 C 429.57552 539.67788 419.0005 538.28945 413.50051 537.49012 C 408.00051 536.69078 398.5505 535.3346 392.50051 534.47645 C 348.16084 528.18711 330.36017 524.54072 318.00051 519.21277 C 307.92046 514.8675 298.64216 502.04213 293.61184 485.49988 C 287.98974 467.01164 283.99795 426.1352 285.90871 406.61902 C 286.90412 396.45207 287.19662 395.46481 290.37355 391.58777 C 292.46628 389.03389 294.82895 384.18138 296.51613 378.96863 C 299.0104 371.26222 299.30337 368.74443 299.76418 351.0116 C 300.24869 332.36681 299.41409 318.22156 296.84621 301.49988 C 295.31545 291.53178 294.12968 288.60221 287.61965 278.72059 C 281.38825 269.26192 275.46756 264.31508 267.01809 261.50379 C 263.50493 260.3349 261.86996 259.00439 259.67043 255.52137 C 258.1145 253.0575 254.91332 248.89309 252.5552 246.26941 C 250.19706 243.64575 244.6605 236.86668 240.25246 231.20301 C 217.31665 201.7339 204.10944 192.1263 176.70949 184.9784 C 168.58042 182.85775 147.19687 178.99988 143.56887 178.99988 C 143.33203 178.99988 143.05563 166.86428 142.76223 143.49988 L 142.43605 117.49988 L 136.67238 108.09559 C 132.66309 101.55352 131.22642 98.37358 131.95363 97.646367 C 132.52861 97.071392 133.00051 95.546558 133.00051 94.259649 C 133.00051 92.972739 133.83029 90.251408 134.84621 88.210821 C 136.74545 84.396005 143.22519 65.230898 147.06105 52.079961 C 148.25143 47.998832 150.74871 41.885515 152.61184 38.495977 C 156.53804 31.353127 156.97689 27.673514 153.94582 27.474493 z M 79.545429 324.10535 C 79.873298 324.2981 79.747036 326.89015 79.371601 333.49988 C 78.780675 343.90347 79.001233 345.76597 83.426289 367.84363 C 85.999588 380.68245 87.967369 391.5993 87.799336 392.1034 C 87.327751 393.51816 85.27181 389.71893 84.047383 385.17176 C 83.441355 382.92115 81.428273 379.09418 79.574726 376.6659 C 73.92374 369.26271 73.666471 368.35616 73.715351 356.0077 C 73.762193 344.17493 75.645385 332.16287 78.420429 325.99988 C 78.988614 324.73802 79.348709 323.9897 79.545429 324.10535 z " />
    <path
       id="path2"
       style="fill:#FFC0CB"
       d="M 150.23879 31.189336 C 149.60579 31.251878 147.91716 32.160383 144.73488 33.960821 C 134.80785 39.577242 117.99671 59.049577 114.11379 69.427617 C 112.54185 73.629009 110.00051 86.948378 110.00051 90.986211 C 110.00051 91.448719 113.03801 92.807306 116.75051 94.005742 C 120.463 95.20418 124.17551 96.579852 125.00051 97.062383 C 127.40194 98.466948 128.8207 98.141964 129.48879 96.036992 C 129.83132 94.957769 129.62283 93.162127 129.0259 92.046758 C 128.2218 90.544273 128.3101 88.527049 129.36965 84.259649 C 131.93329 73.934398 133.23503 65.074106 132.57473 62.443242 C 131.4526 57.972345 135.91182 46.314799 140.8423 40.829961 C 143.23077 38.172952 145.76629 35.999883 146.47707 35.999883 C 147.18785 35.999883 148.50778 34.874882 149.40871 33.499883 C 150.44978 31.911002 150.87178 31.126794 150.23879 31.189336 z M 78.340351 60.408086 C 78.228896 60.438935 78.330678 60.807983 78.604023 61.499883 C 79.038594 62.599882 79.667347 70.474892 80.000508 78.999883 C 80.333669 87.524875 81.163367 95.892498 81.846211 97.595586 L 83.088398 100.69324 L 90.502461 96.808477 L 97.91457 92.923711 L 94.428242 85.212774 C 91.17886 78.02454 84.797035 67.818017 79.912617 61.999883 C 78.97909 60.887901 78.483651 60.368423 78.340351 60.408086 z M 106.61379 94.015508 C 103.74811 93.934168 100.96674 94.245334 100.49074 95.015508 C 100.14528 95.574479 99.496684 95.805658 99.049336 95.52918 C 98.601986 95.252702 97.169839 95.839812 95.867695 96.831914 C 94.565552 97.824016 92.017066 99.230997 90.203633 99.958867 C 88.390198 100.68674 86.297947 102.45614 85.555195 103.89246 C 83.73267 107.41685 80.366726 110.34468 79.063008 109.53895 C 78.359194 109.10397 77.997334 110.84518 77.992695 114.69129 C 77.988795 117.88625 77.034081 124.3249 75.871601 128.99988 C 72.87994 141.03105 72.864629 152.66726 75.826679 160.99988 C 78.071129 167.31382 78.310041 167.58226 84.193867 170.3866 C 87.525336 171.97444 92.234448 173.49812 94.658711 173.77137 L 99.066914 174.26746 L 98.402851 169.88465 C 98.03749 167.47356 97.128216 163.69988 96.38332 161.49988 C 95.638423 159.2999 95.022184 155.98166 95.014179 154.12684 C 95.002221 151.35489 95.248695 150.9606 96.395039 151.91199 C 97.162113 152.5486 97.999896 154.51681 98.256367 156.28504 C 99.963261 168.05317 105.82198 181.31227 110.91848 184.94129 C 112.41837 186.00933 115.83736 187.14707 118.51613 187.46863 C 121.19493 187.79019 123.59936 188.26671 123.85988 188.52723 C 125.29993 189.96728 126.04103 188.70353 124.6548 187.17176 C 123.74457 186.16595 123.00051 184.14095 123.00051 182.67176 C 123.00051 180.25406 122.64453 179.99856 119.25051 179.98621 C 114.36134 179.96841 110.87853 179.00618 111.58254 177.86707 C 111.89046 177.36885 111.62343 175.38768 110.98879 173.46473 C 110.009 170.49593 110.11412 169.48911 111.68996 166.7909 L 113.54543 163.61316 L 123.52395 163.33973 C 129.01125 163.18978 134.5626 162.80581 135.86184 162.48621 C 138.17986 161.91601 138.18921 161.86663 136.36184 159.84559 C 134.87695 158.20334 134.48971 156.13548 134.45168 149.64246 C 134.41058 142.6342 134.02872 140.87273 131.7134 136.99988 C 128.42517 131.49968 128.32037 129.42115 131.25051 127.91395 C 132.48801 127.27739 134.70067 125.63729 136.16848 124.26941 C 137.63627 122.90156 139.32379 122.08156 139.91848 122.4491 C 142.2253 123.8748 140.77714 120.29871 135.38918 111.26941 C 131.45943 104.68386 128.98678 101.58505 127.13918 100.93152 C 125.68809 100.41824 123.81035 99.606663 122.9673 99.126836 C 122.12426 98.64701 119.89972 97.917735 118.02395 97.505742 C 116.14816 97.093751 113.99282 96.136732 113.23488 95.378789 C 112.4283 94.57221 109.47947 94.096848 106.61379 94.015508 z M 89.646992 125.06824 C 90.547755 125.02099 91.730828 125.31351 93.734883 125.84754 C 96.654321 126.6255 99.339428 128.15957 100.66652 129.80848 C 102.64806 132.27048 102.6995 132.64917 101.26223 134.24988 C 100.14398 135.49528 98.174651 135.99988 94.434101 135.99988 C 89.763002 135.99988 88.881919 135.64862 86.520039 132.84168 L 83.861836 129.68348 L 86.41457 127.13074 C 87.794956 125.75036 88.488867 125.12899 89.646992 125.06824 z M 134.56496 133.65027 C 132.5137 133.62011 132.76798 134.43605 134.87355 137.11512 C 136.11689 138.69708 136.98323 142.02487 137.44582 146.99988 C 137.82938 151.12488 138.42142 155.39988 138.76223 156.49988 C 139.90767 160.19689 140.9056 150.98718 140.29543 142.34363 L 139.71926 134.18543 L 136.35988 133.79285 C 135.63534 133.70827 135.03833 133.65724 134.56496 133.65027 z M 76.264179 169.2577 L 75.658711 175.74598 C 74.828744 184.6339 69.935408 195.28709 59.848164 210.1698 C 55.535754 216.53233 53.905378 219.99135 52.965351 224.76941 C 51.083178 234.33631 52.122866 243.06311 56.359883 253.2616 C 60.271595 262.67708 61.214464 271.84295 58.871601 277.68543 C 58.155303 279.47169 57.606563 291.28129 57.371601 309.99988 C 57.16794 326.22487 56.515826 346.74519 55.922383 355.60145 C 54.833289 371.85452 56.012469 397.2871 58.029804 401.05652 C 59.292122 403.41522 62.000508 405.50657 62.000508 404.12293 C 62.000508 401.68225 63.909707 403.19473 65.000508 406.49988 C 65.635814 408.42488 66.681834 410.06846 67.326679 410.15223 C 67.971525 410.23603 69.039427 410.35355 69.697773 410.41395 C 70.356121 410.47435 72.223788 411.79715 73.848164 413.3534 L 76.801289 416.18348 L 77.479023 413.09168 C 78.157704 410.00166 79.758676 409.15844 81.549336 410.9491 C 82.149335 411.5491 82.469971 410.9044 82.418476 409.1991 C 82.300357 405.28754 80.874483 400.73323 79.266133 399.12488 C 78.36796 398.22671 78.216384 397.38362 78.838398 396.7616 C 79.874058 395.72594 86.000508 399.61705 86.000508 401.31043 C 86.000508 401.82435 86.664746 401.69358 87.47707 401.01941 C 88.755461 399.95844 88.565994 399.23002 86.07082 395.6034 C 84.485319 393.29895 82.683962 389.53947 82.066914 387.24793 C 81.449865 384.95638 79.428273 381.09418 77.574726 378.6659 C 71.896317 371.22678 71.665799 370.3873 71.607929 356.99988 C 71.544585 342.34588 73.137332 332.29651 77.121601 322.22449 C 78.704631 318.22268 80.000508 313.37352 80.000508 311.4491 C 80.000508 309.52467 80.88216 305.44203 81.959492 302.37684 C 83.664146 297.52678 83.736798 296.52496 82.529804 294.65223 C 81.766991 293.46867 79.256027 287.09988 76.949726 280.49988 L 72.756367 268.49988 L 72.777851 248.49988 C 72.794481 232.24444 73.144535 227.20372 74.648945 221.57605 C 77.347161 211.48263 80.095915 211.41361 77.682148 221.49988 C 77.550527 222.04988 77.022428 223.17352 76.50832 223.99793 C 75.07893 226.29006 74.681803 248.21916 75.855976 259.99988 C 77.045614 271.93575 77.535468 274.67777 78.984883 277.49988 C 79.549832 278.59988 81.060669 282.64989 82.342304 286.49988 C 83.90802 291.20324 85.388871 293.86085 86.855976 294.60145 C 88.978258 295.6728 96.000508 304.6672 96.000508 306.31434 C 96.000508 307.26596 99.612534 311.82392 109.75051 323.6659 C 113.738 328.32362 117.00051 333.03416 117.00051 334.1327 C 117.00051 335.23123 118.41826 337.32125 120.1509 338.77918 C 121.88354 340.2371 124.32597 343.74747 125.57863 346.57996 C 126.8313 349.41246 128.51721 351.98419 129.32668 352.2948 C 131.46856 353.11672 139.30645 364.64746 141.8423 370.70887 C 143.04108 373.57427 145.14106 377.12794 146.51027 378.60535 C 149.07164 381.3691 149.66709 382.99988 148.11574 382.99988 C 146.90119 382.99988 140.00051 375.25535 140.00051 373.89246 C 140.00051 371.29955 134.46085 362.10785 129.47902 356.43348 C 126.51645 353.05906 123.52972 348.99497 122.84035 347.40027 C 122.15098 345.80557 119.87976 342.59658 117.79348 340.27137 C 115.70719 337.94616 114.00051 335.32269 114.00051 334.44129 C 114.00051 332.86819 112.2613 330.60281 100.76613 317.18934 C 97.612948 313.50994 94.285179 308.92488 93.369648 306.99988 C 86.541565 292.64314 83.93271 296.93768 82.000508 325.72254 L 80.846211 342.9452 L 85.451679 366.72254 C 87.985354 379.80006 90.760603 394.09989 91.617695 398.49988 C 92.474788 402.89988 94.527 411.44989 96.178242 417.49988 C 101.32281 436.34906 107.61465 475.09802 110.4673 505.49988 C 111.24611 513.79994 109.24649 537.16427 107.6177 538.80262 C 105.90946 540.52086 91.064364 542.82567 78.252461 543.36121 C 67.421099 543.81397 66.780835 544.02433 54.361836 551.21277 C 50.985847 553.16688 45.924466 555.52921 43.113789 556.46277 C 39.368634 557.70671 37.02869 559.348 34.357929 562.6073 L 30.715351 567.05457 L 32.607929 570.65809 C 34.897709 575.01655 39.006623 577.04911 44.887226 576.73426 C 48.663225 576.53208 49.506831 576.06713 50.936054 573.39246 C 51.849396 571.68322 54.711274 567.86635 57.297383 564.91004 C 59.883492 561.95372 62.002362 559.0769 62.004414 558.51746 C 62.006514 557.95801 64.81897 555.27509 68.254414 552.55652 C 76.965976 545.66281 76.755424 545.79579 77.396992 546.83387 C 77.713166 547.34545 74.87732 550.34049 71.096211 553.49012 C 67.315101 556.63974 63.618421 560.40431 62.881367 561.8573 C 62.144314 563.3103 59.844078 566.11758 57.770039 568.09559 C 53.665479 572.01011 53.022326 574.37847 55.750508 575.51746 C 56.713007 575.9193 62.000513 576.46367 67.500508 576.7284 L 77.500508 577.21082 L 81.500508 573.3241 C 83.700505 571.18678 87.741133 566.17724 90.480976 562.19129 C 97.004111 552.7014 101.60025 548.20119 103.16848 549.76941 C 104.05551 550.65644 103.92858 551.09074 102.63332 551.58777 C 100.90594 552.25063 90.560757 565.38049 88.219258 569.8827 C 87.198754 571.84491 87.193006 572.50213 88.188008 573.11707 C 90.556829 574.58108 102.51697 575.28164 114.62746 574.66785 C 138.74616 573.44545 146.90404 570.9373 150.34621 563.68348 C 152.38345 559.39031 152.40475 556.12525 150.47316 543.99988 C 144.31294 505.32969 143.47836 456.78043 148.62746 436.59949 C 150.47881 429.34348 152.01611 407.12463 150.97121 402.72645 C 150.54964 400.95198 150.15837 400.23168 150.10207 401.12684 C 149.92978 403.86629 147.43598 405.30319 145.0591 404.03113 C 143.28768 403.08309 143.08014 402.31573 143.62746 398.71082 C 144.47542 393.12577 146.88956 385.86423 148.51809 383.99988 C 149.85732 382.46672 154.987 363.11526 155.01223 359.49988 C 155.02023 358.39988 155.87182 354.79988 156.9048 351.49988 C 157.93778 348.19989 159.08809 340.99988 159.46145 335.49988 C 159.8348 329.99989 161.00926 322.02514 162.07082 317.77723 C 163.20057 313.25643 164.02421 306.41436 164.0591 301.27723 C 164.0919 296.45015 164.46523 290.39467 164.88918 287.82215 C 165.83084 282.10823 165.20953 280.90768 159.2134 276.87488 C 156.62129 275.13152 153.37551 272.70022 152.00051 271.47254 C 150.62551 270.24485 147.76323 268.68636 145.64113 268.0077 C 139.29158 265.97705 131.68884 257.0784 127.57668 246.86707 C 122.98265 235.45916 121.56845 226.91581 122.41652 215.68152 C 123.15705 205.872 124.57797 201.4963 126.12551 204.2616 C 126.64645 205.19248 126.62032 206.86869 126.06105 208.33973 C 124.63114 212.10072 125.019 228.97571 126.67629 235.1034 C 128.68738 242.53922 128.60513 242.26582 129.48293 244.49988 C 132.58122 252.38521 134.38206 255.47198 138.21926 259.47645 C 140.6221 261.98402 143.69348 264.24772 145.04348 264.5077 C 146.39348 264.76769 148.62289 265.89087 149.99855 267.00184 C 151.37421 268.11281 154.30051 270.23952 156.50051 271.7284 C 161.79546 275.31183 166.49712 279.14605 166.51613 279.89637 C 166.52413 280.22868 166.88137 281.05394 167.31105 281.73035 C 167.74074 282.40677 167.86113 286.00678 167.57668 289.73035 C 167.29223 293.45394 166.79167 300.32489 166.46535 304.99988 C 166.13902 309.67488 165.27182 316.19989 164.53762 319.49988 C 163.80342 322.79988 162.91818 329.32489 162.57082 333.99988 C 161.81648 344.15238 161.25103 347.87012 159.45559 354.49988 C 158.71085 357.24988 156.90478 364.89989 155.44191 371.49988 C 153.88288 378.53384 152.03049 384.32755 150.96535 385.49988 C 149.96593 386.59988 148.8193 388.84988 148.41652 390.49988 C 148.01375 392.14988 147.06926 394.44939 146.31887 395.60926 C 145.16361 397.39495 145.16741 397.89427 146.34426 398.87098 C 147.41331 399.75821 148.02532 399.67486 148.99074 398.5116 C 149.68105 397.67982 149.87961 396.99988 149.43215 396.99988 C 148.98468 396.99988 149.49145 396.34639 150.5591 395.54676 C 153.41335 393.40899 154.9485 395.80853 154.01027 400.93934 C 153.61531 403.09918 153.57326 406.58413 153.91457 408.68348 L 154.53371 412.49988 L 156.26809 408.84949 C 157.22114 406.84137 158.00051 404.02887 158.00051 402.59949 C 158.00051 399.91478 159.47961 399.04539 160.29738 401.24988 C 160.55241 401.93738 160.52829 404.62274 160.24465 407.21668 C 159.94646 409.94398 160.26096 413.21337 160.98879 414.97059 L 162.2466 418.00965 L 164.12355 414.5077 C 165.15575 412.58195 166.00051 409.16763 166.00051 406.9198 C 166.00051 404.09494 166.38652 402.96221 167.25051 403.24988 C 167.93801 403.47879 168.63685 404.52749 168.8052 405.58191 C 168.97354 406.63633 169.59453 408.74411 170.1841 410.26551 C 171.03971 412.47347 171.53686 412.80045 172.64504 411.88074 C 173.66163 411.03705 173.85968 409.42462 173.38723 405.86316 C 172.63654 400.20416 174.16858 399.25369 175.98684 404.24988 C 177.07435 407.23813 177.23632 407.33231 177.98879 405.42371 C 179.25685 402.20732 177.52336 389.94872 175.14113 385.27918 C 172.80119 380.69252 172.35589 373.53819 173.89699 365.29871 C 174.39069 362.65914 175.33533 357.34988 175.99465 353.49988 C 177.71716 343.44158 184.52862 323.49963 191.19582 308.99988 C 199.62229 290.67409 201.85621 283.28765 202.14699 272.7909 C 202.29446 267.46745 201.94283 266.52183 196.93996 258.7909 C 193.98907 254.23088 190.25908 248.95243 188.6509 247.06043 C 185.33374 243.15783 178.79228 229.73971 176.92043 222.99988 C 176.23305 220.52489 173.33326 214.89988 170.47707 210.49988 C 167.62088 206.09989 164.9885 201.27142 164.62746 199.76941 C 163.66227 195.75406 157.51539 189.99988 154.18996 189.99988 C 150.96201 189.99988 146.69129 187.30782 147.59621 185.84363 C 148.01753 185.16192 148.58551 185.18451 149.31301 185.91199 C 149.91093 186.50991 151.4582 186.99988 152.75051 186.99988 C 154.04282 186.99988 156.35985 187.65219 157.9009 188.4491 C 161.28692 190.20008 167.00051 196.51272 167.00051 198.50379 C 167.00051 200.21921 170.49764 206.69828 172.93605 209.49988 C 176.6087 213.71956 179.20831 219.23165 180.55129 225.64246 C 181.2502 228.97876 188.53593 242.90553 191.77004 247.08777 C 195.75078 252.23555 198.57502 256.22721 202.49465 262.24598 C 204.68494 265.60926 204.9053 266.88777 204.64895 274.74598 C 204.30479 285.29551 202.26031 292.08475 194.33254 308.99988 C 192.39924 313.12488 190.22219 317.84988 189.49465 319.49988 C 187.45952 324.1154 180.75326 344.07044 179.91652 347.99988 C 179.50661 349.92488 178.85917 352.62488 178.47707 353.99988 C 177.19951 358.59725 176.16983 367.43182 176.0884 374.49988 C 176.0278 379.76203 176.48789 382.28644 177.93996 384.66785 C 180.59143 389.01629 182.30844 401.77982 180.83254 406.16395 C 180.21485 407.99876 179.32122 410.001 178.84621 410.61316 C 178.29194 411.32744 181.21932 415.67614 187.01809 422.75184 C 194.40988 431.77136 196.94605 434.16118 200.96145 435.88855 C 203.66107 437.04989 207.05381 437.99988 208.50051 437.99988 C 212.7434 437.99988 214.92226 439.77829 217.44777 445.30457 C 218.75355 448.16186 222.55624 456.57489 225.89895 463.99988 C 232.35729 478.34548 233.32319 478.44039 230.98098 464.49988 C 230.42653 461.19989 229.73763 456.24988 229.44973 453.49988 C 228.69738 446.31366 228.14142 443.02888 226.91262 438.49988 C 226.31571 436.29989 225.2243 431.87242 224.48879 428.66199 C 223.75327 425.45157 222.46383 422.06335 221.6216 421.1327 C 220.77936 420.20204 219.40544 416.81326 218.56887 413.60145 C 217.7323 410.38963 216.64447 407.25283 216.1509 406.63074 C 215.65733 406.00865 214.30431 402.79407 213.14504 399.48621 C 211.14251 393.77224 211.06093 392.04952 211.50637 364.98621 C 211.76424 349.31909 212.4109 334.47488 212.94387 331.99988 C 213.47683 329.52489 213.93164 325.34192 213.95559 322.70496 C 214.01459 316.20562 216.83776 305.29592 219.60402 300.87098 C 222.80568 295.74956 224.66436 290.99722 225.46145 285.89832 C 226.49298 279.29967 229.0723 272.72072 231.41457 270.71473 C 233.99687 268.50316 242.90618 263.72529 245.19191 263.32605 C 246.12232 263.16355 248.82233 262.35452 251.19191 261.52918 C 253.5615 260.70384 256.31355 260.02156 257.30715 260.01355 C 259.04919 259.99956 259.04919 259.89045 257.30715 256.92762 C 256.31355 255.23773 253.39754 251.49221 250.82863 248.60535 C 248.25972 245.7185 242.57596 238.75518 238.19777 233.13074 C 219.94283 209.67955 210.40704 201.2154 193.36965 193.34363 C 184.32205 189.16339 166.99401 184.52052 153.58645 182.68348 L 143.67238 181.32605 L 139.08645 185.98816 L 134.50051 190.65027 L 124.50051 190.5741 C 115.14925 190.504 114.21902 190.30937 110.17043 187.56434 C 107.78922 185.94983 105.08696 183.02482 104.16457 181.06434 C 102.53544 177.60171 102.28043 177.47803 95.275898 176.71473 C 89.928974 176.13206 86.539788 175.06665 82.16457 172.59363 L 76.264179 169.2577 z M 140.6177 177.72645 C 140.16586 177.74597 138.98785 178.43506 137.00051 179.73621 C 134.80051 181.17659 133.00051 182.91328 133.00051 183.59559 C 133.00051 184.27791 132.72694 185.54787 132.39309 186.41785 C 131.57658 188.54564 132.66374 188.4095 135.72707 185.99988 C 137.12549 184.89988 137.95354 183.99988 137.56691 183.99988 C 137.18029 183.99988 137.79469 182.69298 138.93215 181.09559 C 140.5786 178.78335 141.19863 177.70135 140.6177 177.72645 z M 260.79152 262.99988 C 256.17405 262.99988 244.59901 266.1024 239.90871 268.59754 C 238.03406 269.59481 236.18742 270.32748 235.8052 270.22449 C 233.69014 269.65458 228.00051 282.32267 228.00051 287.60145 C 228.00051 288.99338 227.45994 291.11495 226.79934 292.31629 C 226.13873 293.51763 225.46918 295.27263 225.31105 296.21668 C 225.15292 297.16074 223.73621 300.08574 222.16457 302.71668 C 218.96729 308.06895 217.5902 313.84221 216.01418 328.49988 C 213.49563 351.92349 212.9009 360.95877 213.38137 368.49988 C 213.6617 372.89988 213.89601 380.5527 213.9009 385.50574 C 213.9069 391.60943 214.40824 395.50979 215.45559 397.60926 C 217.54002 401.78761 222.00051 414.17651 222.00051 415.78699 C 222.00051 416.49914 222.90596 418.30436 224.01223 419.80066 C 225.1185 421.29697 226.24675 423.64268 226.52004 425.0116 C 226.79333 426.38052 227.19339 428.43679 227.41066 429.58191 C 227.62793 430.72703 228.49844 433.70196 229.34426 436.19324 C 230.19007 438.68452 231.09624 442.92261 231.35793 445.61121 C 232.51699 457.51938 235.32232 476.80081 236.36184 479.99988 C 237.65982 483.99441 237.96685 538.50488 236.70559 541.05457 C 235.91672 542.64928 222.07011 544.6719 206.50051 545.46668 C 199.76193 545.81066 192.80014 547.89831 191.52785 549.95691 C 190.80829 551.12118 183.64511 554.44225 176.22121 557.05457 C 169.66732 559.36075 163.97808 563.37727 161.14504 567.6991 C 159.17078 570.71087 159.13741 570.99988 160.75441 570.99988 C 161.72904 570.99988 162.96931 571.98488 163.51223 573.18934 C 164.05515 574.39379 166.52231 576.44011 168.99465 577.73621 C 173.69634 580.20104 176.42641 580.22417 185.58254 577.87879 C 187.82838 577.30351 189.68555 576.30759 189.70949 575.6659 C 189.81765 572.76649 194.26528 564.6676 197.9341 560.68738 C 202.76359 555.44802 214.00051 547.35831 214.00051 549.12098 C 214.00051 550.62885 210.04323 554.99988 208.67824 554.99988 C 207.09017 554.99988 198.93576 562.07838 197.87551 564.37684 C 197.33681 565.54465 195.86038 568.50849 194.59621 570.96277 C 191.60678 576.76653 192.16551 578.80428 196.85207 579.1952 C 203.05076 579.71226 215.30334 577.62348 215.75441 575.97254 C 218.01412 567.70181 220.52028 563.80014 226.96535 558.52723 C 230.68136 555.48704 234.23556 552.99988 234.86184 552.99988 C 236.86378 552.99988 236.08129 555.88802 233.75051 557.10145 C 232.51301 557.7457 229.24576 560.17826 226.49074 562.5077 C 222.72418 565.69242 221.19198 567.82742 220.31496 571.11316 C 219.67347 573.51649 219.2751 575.60846 219.4302 575.76355 C 219.58529 575.91865 226.20523 576.32705 234.14113 576.6698 C 255.64518 577.59857 271.99752 574.82535 277.10598 569.38465 C 280.53594 565.73159 280.24287 559.36585 276.25832 550.99988 C 274.55562 547.42489 272.99464 542.92488 272.78957 540.99988 C 272.5845 539.07489 271.67486 536.11077 270.76809 534.41395 C 264.83973 523.32037 261.24245 488.74771 262.24465 452.49988 C 262.69335 436.27096 263.07849 432.73359 264.88527 428.24012 C 266.04869 425.34672 267.00051 421.31989 267.00051 419.29285 C 267.00051 416.99161 267.93767 414.25526 269.4966 412.00574 C 273.22161 406.63056 276.26369 393.95617 275.4302 387.28504 C 274.91233 383.14016 275.1687 380.94947 276.52785 377.93543 C 278.70226 373.11345 280.57414 372.67589 279.45754 377.24988 C 278.28117 382.06874 278.31411 398.00602 279.50051 397.96668 C 283.38342 397.83792 291.3915 386.62879 294.50246 376.96863 C 299.23802 362.26372 299.18712 329.56238 294.38527 301.3573 C 293.04665 293.49452 292.10747 291.04572 287.6841 283.87684 C 284.85507 279.29189 280.92545 273.92483 278.94973 271.9491 C 274.26067 267.26006 265.61688 262.99988 260.79152 262.99988 z M 283.56691 399.3202 L 280.32473 400.31434 C 277.69927 401.12012 276.79039 402.16841 275.54543 405.82215 C 274.69988 408.30372 273.3043 411.11162 272.44387 412.06238 C 271.58344 413.01315 270.446 416.8509 269.91652 420.58973 C 269.38704 424.32854 268.29122 428.71361 267.48293 430.33387 C 265.53252 434.24356 263.86299 452.3811 264.47512 462.99988 C 264.74461 467.67488 265.20258 476.44989 265.49465 482.49988 C 266.29015 498.97784 267.8004 515.09193 268.89113 518.74988 C 269.42412 520.53738 269.57759 521.99988 269.23098 521.99988 C 268.88438 521.99988 269.13933 522.5391 269.79934 523.1991 C 270.45934 523.8591 271.00991 525.3216 271.02199 526.4491 C 271.03409 527.5766 271.94979 530.49641 273.05715 532.93738 C 274.16451 535.37836 275.31938 538.94141 275.62355 540.85535 C 275.92773 542.76928 277.37451 546.93631 278.8384 550.11512 C 281.32355 555.51159 281.93144 556.08804 288.00051 558.81434 C 298.60584 563.57838 302.30871 564.60005 315.50051 566.39637 C 320.82072 567.12082 384.47166 566.00352 395.1548 564.99793 C 407.1672 563.86723 409.85474 563.531 428.00051 560.90223 C 450.30724 557.67066 456.49541 555.07222 455.81105 549.22449 C 455.39829 545.69756 452.06689 544.63409 435.00051 542.5741 C 427.57552 541.67788 417.0005 540.28945 411.50051 539.49012 C 406.00051 538.69078 396.5505 537.3346 390.50051 536.47645 C 346.16084 530.18711 328.36017 526.54072 316.00051 521.21277 C 310.49982 518.84156 304.28611 512.94044 299.8052 505.83191 C 293.80712 496.31656 291.00541 487.99771 288.07473 470.99988 C 284.54475 450.52615 283.61894 439.87289 283.5923 419.41004 L 283.56691 399.3202 z " />
    <path
       style="fill:#FF0000"
       d="M 133.16862,177.95655 C 138.03561,175.4495 141,171.75862 141,168.20592 c 0,-2.89008 -0.27111,-3.29802 -1.75,-2.63317 -0.9625,0.4327 -6.65308,1.04335 -12.64574,1.35699 -8.88889,0.46523 -11.09818,0.89258 -11.99488,2.32026 -1.78206,2.83729 0.48884,5.09845 6.73423,6.70537 5.35945,1.37898 5.65639,1.61959 5.65639,4.58334 0,4.35803 1.13783,5.03877 2.60194,1.55668 0.67941,-1.61585 2.28442,-3.47833 3.56668,-4.13884 z"
       id="path3" />
    <path
       id="path4"
       style="fill:#e9c6af"
       d="M 41.434101 35.999883 C 39.474867 35.999883 39.654394 39.637145 41.85207 44.499883 C 42.846341 46.699881 44.441222 51.649887 45.396992 55.499883 C 46.352762 59.349879 47.58606 64.230931 48.137226 66.347539 C 50.294172 74.630707 65.45178 94.246265 74.750508 100.78699 C 76.990204 102.3624 78.000508 103.8757 78.000508 105.65809 C 78.000508 107.83625 78.235631 108.04934 79.490742 107.0077 C 80.464576 106.19949 80.77345 104.85682 80.381367 103.13465 C 80.051349 101.68508 79.157516 98.576722 78.395039 96.226446 C 77.496746 93.457529 77.030401 87.547305 77.07082 79.43543 C 77.170692 59.391332 76.103961 57.605167 56.006367 44.140508 C 52.427453 41.742766 49.265217 39.408354 48.979023 38.953008 C 48.339929 37.936183 43.392917 35.999883 41.434101 35.999883 z M 149.78566 37.652227 C 148.45286 37.537107 141.29103 43.082017 140.14895 45.328008 C 137.62304 50.295378 135.60343 57.845501 135.42043 62.999883 C 135.12565 71.302222 134.06394 78.567339 132.4966 83.009649 C 131.72212 85.204759 131.48707 86.999883 131.97316 86.999883 C 132.45925 86.999883 133.73192 84.63738 134.80129 81.749883 C 137.18717 75.307596 142.00604 60.452854 145.49855 48.775274 C 146.9336 43.977022 148.53272 39.788383 149.05324 39.46668 C 149.57377 39.144978 150.00051 38.430505 150.00051 37.878789 C 150.00051 37.735797 149.92354 37.664136 149.78566 37.652227 z " />
    <path
       id="path5"
       style="fill:#ffff00"
       d="M 138.97512 125.79871 C 138.81414 125.79997 138.62749 125.89448 138.40871 126.07605 C 137.50679 126.82457 137.49481 127.65782 138.35988 129.52332 C 139.87738 132.79585 140.10665 132.64398 139.83059 128.5448 C 139.70218 126.63822 139.45805 125.79493 138.97512 125.79871 z M 90.836445 128.31043 C 89.941009 128.29956 89.103813 128.50822 88.605976 129.01551 C 87.795172 129.8417 88.12819 130.65522 89.859883 132.0702 C 92.410841 134.15461 94.000508 134.54337 94.000508 133.08191 C 94.000508 132.57689 94.251298 131.50708 94.559101 130.70496 C 95.052857 129.41825 92.806404 128.33435 90.836445 128.31043 z " />
  </g>
</svg>
